<svg xmlns="http://www.w3.org/2000/svg" width="367.101" height="349.034" viewBox="0 0 367.101 349.034">
  <g id="Group_1055" data-name="Group 1055" transform="translate(774.521 1210.902) rotate(163)">
    <path id="Path_500" data-name="Path 500" d="M181.058,217.273c-25.87-12.336-61.056,1.486-75.223-12.652-11.229-11.206-10.905-22.838-28.227-37.45-10.2-8.608-28.327-12.059-40.762-27.262-6.942-8.487,7.522-22.089-17.134-42.565-17.864-14.834-1.541-25.738-3.072-39.2C12.724,23.724-8.143,22.283,4.314,8.171c17-19.256,35.6,10.241,59.474,5.079,4.091-.885,10.189-3.874,19.245-1.757,23.157,5.414,24.327-12.828,38.453-8.061,19.765,6.67-.228,22.248,46.416,22.733,1.728.018,3.463.213,5.194.3a91.106,91.106,0,0,1,9.718,1.135,77.972,77.972,0,0,1,7.76,1.711,91.6,91.6,0,0,1,15.046,5.437,50.673,50.673,0,0,1,12.038,7.734c10.6,9.162,15.918,15.263,22.827,29.376,14.147,28.9,30.461-13.432,33.263,6.254,2.151,15.115,19.779,25.741,15.6,33.316-3.885,7.045-20.747-16.263-29.766-11.677-12.608,6.411,35.854,24.785,32,52.74-1.653,11.991-17.37,1.33-14.815,15.9,3.993,22.776-19.152,12.284-22.828,35.784-1.026,6.566-7.26,18.673-14.3,20.353C223.372,228.4,195.833,224.318,181.058,217.273Z" transform="translate(435.122 1229.99) rotate(163)" fill="#f7941d"/>
  </g>
</svg>
