<svg xmlns="http://www.w3.org/2000/svg" width="574.974" height="584.758" viewBox="0 0 574.974 584.758">
  <g id="Group_36" data-name="Group 36" transform="translate(-935.878 -300.329) rotate(-49)">
    <path id="Path_500" data-name="Path 500" d="M259.785,410.1c-39.553-21.056-97.4,11.029-118.081-15.152-16.393-20.751-14.339-43.878-39.982-70.58-15.106-15.73-43.5-20.181-61.285-48.7-9.929-15.923,14.9-44.829-21.645-82.2-26.476-27.072.953-50.871.3-77.375C17.409,48.3-15.621,48.2,6.079,18.55,35.691-21.911,61.4,34.16,100.09,20.758c6.63-2.3,16.734-9.036,30.87-6.034C167.11,22.4,171.386-13.95,193.245-6.361c30.584,10.619-3.308,44.179,70.886,38.968,2.749-.193,5.484-.036,8.229-.1a112.069,112.069,0,0,1,15.321.966,93.349,93.349,0,0,1,12.127,2.368,109.336,109.336,0,0,1,23.234,8.8,65.144,65.144,0,0,1,18.141,13.755c15.662,16.777,23.322,28.182,32.453,55.272,18.7,55.474,50.272-30.685,52.128,8.008,1.424,29.711,28.082,48.463,20.429,64.047-7.118,14.494-30.878-29.526-45.842-19.233-20.92,14.391,53.8,44.439,43.964,100.423-4.219,24.014-27.829,4.937-25.69,33.508,3.343,44.669-32.116,26.91-41.077,74.03-2.5,13.165-14.029,38.015-25.457,42.28C325.676,426.588,282.374,422.127,259.785,410.1Z" transform="translate(629.299 1445.198) rotate(163)" fill="#f7941d"/>
  </g>
</svg>
