<svg xmlns="http://www.w3.org/2000/svg" xmlns:xlink="http://www.w3.org/1999/xlink" width="641.602" height="375.143" viewBox="0 0 641.602 375.143">
  <defs>
    <clipPath id="clip-path">
      <rect id="Rectangle_347" data-name="Rectangle 347" width="641.602" height="329.143" fill="none"/>
    </clipPath>
    <clipPath id="clip-path-2">
      <path id="Path_6764" data-name="Path 6764" d="M108.263,14.208l55.765,17.566L134.62,15.543l-15.013-3Z" transform="translate(-108.263 -12.54)" fill="none"/>
    </clipPath>
    <linearGradient id="linear-gradient" x1="-2.697" y1="16.207" x2="-2.672" y2="16.207" gradientUnits="objectBoundingBox">
      <stop offset="0" stop-color="#eef7f6"/>
      <stop offset="1" stop-color="#b2deeb"/>
    </linearGradient>
    <clipPath id="clip-path-4">
      <path id="Path_6767" data-name="Path 6767" d="M100.064,21.177l16.06,8.118L166.861,30.8l-58.94-16Z" transform="translate(-100.064 -14.8)" fill="none"/>
    </clipPath>
    <linearGradient id="linear-gradient-2" x1="-2.081" y1="19.283" x2="-2.06" y2="19.283" xlink:href="#linear-gradient"/>
  </defs>
  <text id="LOG-IN_Intranet" data-name="LOG-IN
Intranet" transform="translate(366 62)" fill="#1655b7" font-size="75" font-family="DBOzoneX, DB Ozone X"><tspan x="-90.372" y="0">LOG-IN</tspan><tspan fill="#f7941d" font-size="45" font-family="DBOzoneX-Medium, DB Ozone X" font-weight="500"><tspan x="-57.014" y="35">Intranet</tspan></tspan></text>
  <g id="Group_1242" data-name="Group 1242" transform="translate(0 46)">
    <g id="Group_1233" data-name="Group 1233">
      <g id="Group_1232" data-name="Group 1232" clip-path="url(#clip-path)">
        <path id="Path_6685" data-name="Path 6685" d="M126.267,152.1c10.423-8.623,22.019-13.054,34.469-14.964C167.16,106.954,175.376,38.349,129.3,0c-117.861,65.658-52.976,181.4-52.976,181.4l35.644-12.956a72.733,72.733,0,0,1,14.3-16.338" transform="translate(22.761 0)" fill="#002f4c"/>
        <path id="Path_6686" data-name="Path 6686" d="M117.522,159.154q1.227-1.383,2.5-2.675l3.649-63.75h0l39.293-23.114c-.107-.843-.217-1.685-.338-2.529L123.837,89.909,128.928.97c-.375-.322-.738-.651-1.12-.97h0c-.41.228-.808.46-1.215.689l-7.2,125.894L63.147,71.61q-.423,1.246-.813,2.491l56.875,55.593Z" transform="translate(24.251)" fill="#184971"/>
        <path id="Path_6687" data-name="Path 6687" d="M143.585,146.767l2.906-23.428S108.355,23.661,33.895,13.906C-20.067,86.323,51.551,158.781,51.551,158.781l67.573,28.334c3.274-15.375,13.028-30.851,24.461-40.348" transform="translate(5.356 5.41)" fill="#005785"/>
        <path id="Path_6688" data-name="Path 6688" d="M124.64,170.345l-39.71-69.28,21.719-42.709q-.823-.961-1.664-1.913L83.532,98.627,35.124,14.171c-.583-.089-1.165-.188-1.756-.265-.213.285-.406.571-.614.856L58.68,59.995,15.6,51.2c-.094.407-.175.813-.264,1.218L15.119,53.5,60.237,62.71l43.206,75.381L27.348,125.063c.463.888.926,1.764,1.395,2.623l76.214,13.047L123.4,172.9c.4-.86.815-1.71,1.245-2.556" transform="translate(5.882 5.41)" fill="#184971"/>
        <path id="Path_6689" data-name="Path 6689" d="M138.56,212C126,198.136,121.7,178.71,122.4,160.55a60.836,60.836,0,0,1,5.446-21.929l-2.4-6.462s-74.124-49.4-123.07-15c7.069,121.961,162.7,121.578,162.7,121.578l-2.986-8.03A89.117,89.117,0,0,1,138.56,212" transform="translate(0.921 40.841)" fill="#0b3887"/>
        <path id="Path_6690" data-name="Path 6690" d="M124.574,184.149l-54.44-30.512L56.348,105.652q-1.263-.158-2.528-.286L67.22,152,3.462,116.27c-.364.244-.732.479-1.093.733v0c.026.469.064.932.094,1.4L107.7,177.387,46.86,202.1q1.1.833,2.209,1.639l61.257-24.881L125.4,187.3c-.294-1.046-.571-2.1-.821-3.156" transform="translate(0.921 40.992)" fill="#0f6b83"/>
        <path id="Path_6691" data-name="Path 6691" d="M83.262,132.936l-4.531-15.76a5.406,5.406,0,0,1-1.7.217,4.994,4.994,0,0,1-4.5-4.552,4.588,4.588,0,0,1-1.706-2.591l-10.147,4.773s4.674,17.48,11.3,23.385,28.07,22.233,28.07,22.233l4.016-1.592Z" transform="translate(23.605 42.893)" fill="#f18c72"/>
        <path id="Path_6692" data-name="Path 6692" d="M94.5,147.521a2.125,2.125,0,0,0,.183.385c-.374.031-.739.081-1.1.142-1.318-.372-2.646-.7-3.967-1.064.315-.728.757-1.75.775-1.829l9.119.632s.408,1.108-1.445,1.586a9.092,9.092,0,0,1-3.564.149" transform="translate(34.864 56.472)" fill="#f18c72"/>
        <path id="Path_6693" data-name="Path 6693" d="M338.052,100.476l-2.889,14.56-7.6-13.1,3.855-6.167Z" transform="translate(127.437 37.257)" fill="#f18c72"/>
        <path id="Path_6694" data-name="Path 6694" d="M347.3,227.761s-3.237,1.706-2.727,4.5,1.322,7.226,1.322,7.226h1.938l.069-3.285a.493.493,0,0,1,.783-.389l3.759,2.734a4.91,4.91,0,0,0,2.891.94h15.142s0-4.846-8.9-6.167a32.545,32.545,0,0,1-14.279-5.555" transform="translate(134.035 88.61)" fill="#122043"/>
        <path id="Path_6695" data-name="Path 6695" d="M351.331,223.894l1.929,5.606a5.525,5.525,0,0,0,2.247,2.854,22.215,22.215,0,0,0,5.685,2.464c-3.309,2.825-8.575-.008-11.587-2.095a7.37,7.37,0,0,1-2.943-4.266l-1.152-4.564Z" transform="translate(134.421 87.106)" fill="#f7a57a"/>
        <path id="Path_6696" data-name="Path 6696" d="M298.331,224.663s-3.643.326-4.249,3.1-1.565,7.176-1.565,7.176l1.789.747,1.329-3a.493.493,0,0,1,.872-.057l2.416,2.913c.539.888,3.648,4.751,4.606,5.151h15.595s-.528-3.92-9.758-5.4c-8.884-1.42-11.035-10.629-11.035-10.629" transform="translate(113.803 87.405)" fill="#122043"/>
        <path id="Path_6697" data-name="Path 6697" d="M302.848,222.949l-.381,5.916a5.516,5.516,0,0,0,.974,3.5,22.188,22.188,0,0,0,4.3,4.466c-4.142,1.332-7.909-3.313-9.884-6.4a7.376,7.376,0,0,1-1.072-5.071l.7-4.655Z" transform="translate(115.43 85.865)" fill="#f7a57a"/>
        <path id="Path_6698" data-name="Path 6698" d="M339.99,129.511c-.229,6.72,12.282,28.042,12.282,28.042s-10.572,8.814-14.1,8.814c-3.138-8.752-5.287-13.395-5.287-13.395s7.33-30.181,7.1-23.461" transform="translate(129.51 50.006)" fill="#f99200"/>
        <path id="Path_6699" data-name="Path 6699" d="M340.992,106.092a5.472,5.472,0,0,0,3.27-.85c3.913-6.234-.543-23.039-.543-23.039l-14.2,2.545-.451,11.261a9.454,9.454,0,0,0,3.546,7.768,15.167,15.167,0,0,0,8.375,2.316" transform="translate(128.022 31.981)" fill="#f7a57a"/>
        <path id="Path_6700" data-name="Path 6700" d="M342.632,155.4c8.9,19.208,9.251,56.213,9.251,56.213l8.634,43.172h-7.754s-26.079-54.979-28.017-70.662a52.808,52.808,0,0,1,4.4-28.019l7.612-11.629s2.528,2.818,5.869,10.925" transform="translate(126.199 56.21)" fill="#331c0e"/>
        <path id="Path_6701" data-name="Path 6701" d="M343.606,164.384S338.32,185.53,324.222,210.2c-9.515,16.212-20.265,41.587-20.265,41.587l-7.224-2.82s3.618-24.458,13.609-44.913a30.165,30.165,0,0,0,3.028-13.495,153.18,153.18,0,0,1,5.516-41.08Z" transform="translate(115.444 58.155)" fill="#331c0e"/>
        <path id="Path_6702" data-name="Path 6702" d="M333.828,100.205s12.221,17.621,15.781,26.161a9.5,9.5,0,0,1,.483,5.651c-5.948,27.688-8.4,49.247-9.216,52.771-16.916-.528-29.427-18.326-29.427-18.326s2.546-5.31,5.385-11.543a74.694,74.694,0,0,0,6.529-26.011,148.567,148.567,0,0,1,2.888-21.126Z" transform="translate(121.169 38.985)" fill="#ffc630"/>
        <path id="Path_6703" data-name="Path 6703" d="M337.39,80.324s-1.145-5.51-4.281-7.04c-3.974-1.938-12.961-1.377-15.517,12.7s4.507,12.549,4.759,18.222-13.657,7.647-14.539,18.934,2.379,13.578,2.379,13.578,3.718,7.345,10.45,4.553c2.092-2.525,1.915-5.6,2.278-7.98a8.7,8.7,0,0,1,3.7-5.876c2.763-1.893,7.351-5.142,8.152-9.739.782-4.481-1.256-9.482-3.13-12.926a25.065,25.065,0,0,1-3-11.7c-.044-3.655.1-7.636.843-9.368,1.532-3.587,3.623-1.418,3.623-1.418Z" transform="translate(119.695 28.195)" fill="#122043"/>
        <path id="Path_6704" data-name="Path 6704" d="M345.5,83.851s-3.58-9.2-14.656-4.6c-1.278.535-1.278.535-3.673,2.3-7.754,11.5,3.673,18.494,3.673,18.494l4.484-8.587s4.221.438,6.822-1.81a11.791,11.791,0,0,0,3.35-5.8" transform="translate(126.237 30.333)" fill="#122043"/>
        <path id="Path_6705" data-name="Path 6705" d="M330.28,87.5a2.477,2.477,0,0,1,3.282.321c1.028.938,1.225,2.314.44,3.074a2.476,2.476,0,0,1-3.284-.322c-1.028-.936-1.224-2.311-.439-3.073" transform="translate(128.308 33.852)" fill="#f7a57a"/>
        <path id="Path_6706" data-name="Path 6706" d="M332.029,78.849l-.764-.888A1.7,1.7,0,0,0,329,77.677l-2.475,1.729a1.276,1.276,0,0,0-.35,1.724l.411.653Z" transform="translate(126.823 30.101)" fill="#f68a16"/>
        <path id="Path_6707" data-name="Path 6707" d="M412.53,229.11s.024,5.442,10.954,8.709c2.242.67,1.513,1.333,1.934,2.275H412.84l-4.926-5.537-1.532,1.315-3.552-3.488s1.659-5.051,4.363-5.094l5.337,1.818" transform="translate(156.72 88.428)" fill="#122043"/>
        <path id="Path_6708" data-name="Path 6708" d="M413.352,225.756l-2.043,4.712a4.928,4.928,0,0,1-5.112-1.553l-.225-.265,1.652-4.846Z" transform="translate(157.943 87.07)" fill="#f7a57a"/>
        <path id="Path_6709" data-name="Path 6709" d="M451.966,230.157s3.923,3.638,12.867,5.917c1.97.5,4.092-.169,4.092,3.079H458.07l-9.027-1.561v1.561h-4.876s-1.357-7.975,1.49-9Z" transform="translate(172.677 89.542)" fill="#122043"/>
        <path id="Path_6710" data-name="Path 6710" d="M450.5,226.033l.958,5.727a5.515,5.515,0,0,1-5.973.2l-.335-.2.486-5.727Z" transform="translate(173.185 87.938)" fill="#f7a57a"/>
        <path id="Path_6711" data-name="Path 6711" d="M445.966,141.429A172.837,172.837,0,0,0,431.824,190.1a38.746,38.746,0,0,1-6.554,16.948c-10,14.256-18.863,49.946-18.863,49.946l6.884,1.952L462.2,180.507l-.332-37.852Z" transform="translate(158.112 55.023)" fill="#464545"/>
        <path id="Path_6712" data-name="Path 6712" d="M439.145,141.742s-4.212,25.678,2.578,50.935a33.175,33.175,0,0,1,.617,14.053c-2.911,17.588,5.267,53.8,5.267,53.8h6.513l11.326-116.67Z" transform="translate(170.346 55.145)" fill="#464545"/>
        <path id="Path_6713" data-name="Path 6713" d="M442.056,119.489s-10.45-2.081-8.748-8.7,21.239-30.656,21.239-30.656l15.292-1.7s-.976,3.7-10.614,5.381-17.169,35.674-17.169,35.674" transform="translate(168.505 30.515)" fill="#f7a57a"/>
        <path id="Path_6714" data-name="Path 6714" d="M451.249,84.626c-.922-1.478-1.811-2.978-2.713-4.478l.012-.015,15.292-1.7s-.976,3.7-10.614,5.38a5.575,5.575,0,0,0-1.978.813" transform="translate(174.502 30.515)" fill="#f18c72"/>
        <path id="Path_6715" data-name="Path 6715" d="M453.964,91.971,453,103.063l-10.726-3.4,2.763-8.841Z" transform="translate(172.066 35.335)" fill="#f18c72"/>
        <path id="Path_6716" data-name="Path 6716" d="M452.771,77.823s8.211,12.364,5.945,19.594C456.168,101.044,445.69,96,445.69,96V79.238Z" transform="translate(173.395 30.277)" fill="#f7a57a"/>
        <path id="Path_6717" data-name="Path 6717" d="M457.5,79.29a10.046,10.046,0,0,0-4.678,2.184c-1.982,1.784-.283,8.95-.283,8.95l.086,2.527a5.543,5.543,0,0,1-5.541,5.734h-.208s-13.593-13.529-7.93-19.759c9.912-9.062,18.555.365,18.555.365" transform="translate(170.233 29.175)" fill="#122043"/>
        <path id="Path_6718" data-name="Path 6718" d="M451.063,86.6a2.273,2.273,0,0,0-1.572-2.346c-1.067-.421-2.092-.051-2.289.825a2.274,2.274,0,0,0,1.572,2.346c1.067.419,2.092.051,2.289-.825" transform="translate(173.97 32.712)" fill="#f7a57a"/>
        <path id="Path_6719" data-name="Path 6719" d="M458.346,77.144c0,1.877-2.077,3.4-4.638,3.4s-11.433-1.521-11.433-3.4,8.873-3.4,11.433-3.4,4.638,1.521,4.638,3.4" transform="translate(172.066 28.691)" fill="#122043"/>
        <path id="Path_6720" data-name="Path 6720" d="M435.478,159.017S424.6,91,452.186,96.543c26.93,5.413,15.009,65.023,15.009,65.023Z" transform="translate(168.599 37.435)" fill="#00437b"/>
        <path id="Path_6721" data-name="Path 6721" d="M449.35,100.585s-17.663,21.769-14.981,27.853,25.554,30.645,26.854,32.022c2,2.859-1.4,13.856,5.4,9.8s1.289-11.756-.264-13.522l-17.067-28.007,10.158-13.685Z" transform="translate(168.883 39.132)" fill="#f7a57a"/>
        <path id="Path_6722" data-name="Path 6722" d="M441.065,108.211l11.656,13.2,4.721-4.8a11.7,11.7,0,0,0,2.966-11.783,9.7,9.7,0,0,0-2.375-3.9l-.14-.138a7.889,7.889,0,0,0-11.558.883Z" transform="translate(171.596 38.388)" fill="#f48205"/>
        <path id="Path_6723" data-name="Path 6723" d="M273.864,106.913,298,141.153l-8.3,2.828L266.766,127.33l1.038-11.578Z" transform="translate(103.785 41.594)" fill="#f7a57a"/>
        <path id="Path_6724" data-name="Path 6724" d="M279.714,95.168c10.875,7.833,2.411,74.907,2.411,74.907L238.6,161.619s3.4-68.059,41.116-66.451" transform="translate(92.826 37.014)" fill="#ffbe20"/>
        <path id="Path_6725" data-name="Path 6725" d="M264.1,97.054l4.244-6.215,7.513,3.912L273.3,103.1a1.648,1.648,0,0,1-.226.1,23.943,23.943,0,0,0-8.976-6.144" transform="translate(102.747 35.341)" fill="#f18c72"/>
        <path id="Path_6726" data-name="Path 6726" d="M268.355,80.031l-2.093,11.546a1.811,1.811,0,0,1,1.058,2.613,2.181,2.181,0,0,1-.006.885,13.442,13.442,0,0,0,9.611,4.751c7.545.311,6.46-14.668,6.46-14.668Z" transform="translate(103.589 31.136)" fill="#f7a57a"/>
        <path id="Path_6727" data-name="Path 6727" d="M264.349,89.806a7.173,7.173,0,0,0-1.088-3.589c-3.26-4.495,1-6.217,2.495-6.747,1.65-.585,1.979-3.253,4.177-4.271,3.357-1.556,5.552,1.386,7.447,1.475s3.591-2.061,5.931-.163,1.564,3.9,2.206,4.978,2.763-.981,4.691,2.386c2.934,5.12-5.173,5.116-5.173,5.116a14.316,14.316,0,0,1-9.669-2.735,1.875,1.875,0,0,0-2.279.024c-1.754,1.5-4,11.019-4,11.019l-1.5-1.979s-3.891-1.624-3.239-5.515" transform="translate(101.955 29.08)" fill="#122043"/>
        <path id="Path_6728" data-name="Path 6728" d="M266.676,87.574a1.8,1.8,0,1,0,1.493-2.06,1.8,1.8,0,0,0-1.493,2.06" transform="translate(103.741 33.26)" fill="#f7a57a"/>
        <path id="Path_6729" data-name="Path 6729" d="M213.142,201.686s-3.46,3.731-5.627,12.236c-.476,1.872.161,3.891-2.928,3.891V207.491l1.485-8.584h-1.485v-4.635s7.583-1.292,8.555,1.417Z" transform="translate(79.594 75.461)" fill="#122043"/>
        <path id="Path_6730" data-name="Path 6730" d="M216.454,200.669l-5.446.911a5.244,5.244,0,0,1-.19-5.68l.19-.318,5.446-1.346Z" transform="translate(81.729 75.567)" fill="#f7a57a"/>
        <path id="Path_6731" data-name="Path 6731" d="M264.721,229.084s.024,5.79,11.653,9.265c2.386.714,1.61,1.42,2.057,2.422H265.05l-5.242-5.891-1.629,1.4-3.777-3.713s1.763-5.371,4.641-5.419l5.678,1.935" transform="translate(98.975 88.372)" fill="#122043"/>
        <path id="Path_6732" data-name="Path 6732" d="M265.6,225.515l-2.174,5.013a5.246,5.246,0,0,1-5.438-1.652l-.24-.283,1.757-5.155Z" transform="translate(100.275 86.928)" fill="#f7a57a"/>
        <path id="Path_6733" data-name="Path 6733" d="M249.248,153.811s.506,17.162,7.086,32.133a7.886,7.886,0,0,1-5.581,10.939c-23.725,4.969-37.118,12.947-37.118,12.947v8.162l55.348-7.574a19.447,19.447,0,0,0,16.709-17.27l1.77-17.123Z" transform="translate(83.114 59.84)" fill="#122043"/>
        <path id="Path_6734" data-name="Path 6734" d="M279.444,152.017s19.13,35.881,19.13,47.011-25.749,54.534-25.749,54.534H265.46s1.306-27.5,6.288-50.309A13.018,13.018,0,0,0,268,190.966c-15.649-14.685-29.533-38.949-29.533-38.949Z" transform="translate(92.775 59.142)" fill="#002f4c"/>
        <path id="Path_6735" data-name="Path 6735" d="M413.079,180.793h-28.3v31.251H350.327V180.793H199V124.155H451.219V227.549H413.079Z" transform="translate(77.419 48.302)" fill="#1a5489"/>
        <path id="Path_6736" data-name="Path 6736" d="M413.079,173.213h-28.3v31.251H350.327V173.213H199V143.64H451.219v76.328h-38.14Z" transform="translate(77.419 55.883)" fill="#004b8a"/>
        <path id="Path_6737" data-name="Path 6737" d="M114.339,250.672H215.724a30.642,30.642,0,0,0,30.554-30.552V116.771a30.644,30.644,0,0,0-30.554-30.553H114.339a30.644,30.644,0,0,0-30.552,30.553V220.12a30.642,30.642,0,0,0,30.552,30.552m19.319-50.853a31.374,31.374,0,1,1,31.374-31.373,31.373,31.373,0,0,1-31.374,31.373" transform="translate(32.597 33.543)" fill="#fca126"/>
        <path id="Path_6738" data-name="Path 6738" d="M83.786,197.283V144.916h18.533c0,.232-.035.458-.035.693a31.374,31.374,0,0,0,62.749,0c0-.235-.031-.461-.035-.693h81.28v52.367a30.642,30.642,0,0,1-30.554,30.552H114.338a30.641,30.641,0,0,1-30.552-30.552" transform="translate(32.597 56.379)" fill="#f99200"/>
        <path id="Path_6739" data-name="Path 6739" d="M118.787,97.777l-3.359,24.382L110.8,98.037,86.415,94.678l24.122-4.632L113.9,65.664l4.631,24.124,24.383,3.359Z" transform="translate(33.62 25.546)" fill="#fff"/>
        <path id="Path_6740" data-name="Path 6740" d="M249.165,111.335l15.159,9.375L253.4,133.229l-1.56,35.6-5.891-1.143s-9.222-27.491-7.383-36.96,10.6-19.391,10.6-19.391" transform="translate(92.72 43.315)" fill="#f7a57a"/>
        <path id="Path_6741" data-name="Path 6741" d="M251.583,153.048l-.054,7.067a5.836,5.836,0,0,1-.967,3.186c-1.188,1.786-3.292,4.4-5.235,4.025-2.914-.565-6.334-7.277-6.334-7.277l6.7-8.147Z" transform="translate(92.98 59.098)" fill="#f7a57a"/>
        <path id="Path_6742" data-name="Path 6742" d="M339.605,124.48s6.469-5.765.718-11.649c-4.617-4.723-9.921,1.1-9.921,1.1s-22.415,24.461-19.7,30.333,29.967,28.339,29.967,28.339l4.192,1.247a8.4,8.4,0,0,0,6.648-.807l2.5-1.467L343.5,168.995s-23.43-24.5-21.164-27.641,17.273-16.874,17.273-16.874" transform="translate(120.791 43.178)" fill="#f7a57a"/>
        <path id="Path_6743" data-name="Path 6743" d="M68.364,96.205l-3.056,6.776-8.961-4.187,7.736-11.133Z" transform="translate(21.922 34.105)" fill="#f18c72"/>
        <path id="Path_6744" data-name="Path 6744" d="M78.175,81.841S76.2,99.388,72.208,101.084,63.5,96.842,63.5,96.842l-4.487-10.4,14.238-6.131Z" transform="translate(22.959 31.246)" fill="#f7a57a"/>
        <path id="Path_6745" data-name="Path 6745" d="M84.749,80.538S81.7,86.626,72.913,83.9c-2.482.051-3.817,2.548-4.514,4.762-.81,2.568-1.083.6-3.128,2.352l-3.58,5.131S53.473,80.7,64.555,76.037s20.194,4.5,20.194,4.5" transform="translate(22.86 29.068)" fill="#122043"/>
        <path id="Path_6746" data-name="Path 6746" d="M64.166,84.535A2.211,2.211,0,0,1,66.5,85.977c.447,1.02.126,2.027-.717,2.252a2.21,2.21,0,0,1-2.335-1.44c-.447-1.02-.126-2.028.717-2.253" transform="translate(24.606 32.871)" fill="#f7a57a"/>
        <path id="Path_6747" data-name="Path 6747" d="M58.036,95.5c-22.109,13.1-13.684,67.222-13.684,67.222H77.973s.388-14.153.832-29.1c.338-11.322,1.4-23.1-1.629-29.537-4.235-8.873-13.65-11.833-19.14-8.58" transform="translate(16.642 36.657)" fill="#f38126"/>
        <path id="Path_6748" data-name="Path 6748" d="M62.072,122.5s5.012,17.385,11.75,23.161,26.111,21.352,26.111,21.352l6.365-1.333L85,139.976,77.29,114.981Z" transform="translate(24.149 44.733)" fill="#f7a57a"/>
        <path id="Path_6749" data-name="Path 6749" d="M61.726,129.45l18.488-7.52-9.258-20.608-12.2,6.349Z" transform="translate(22.861 39.419)" fill="#f38126"/>
        <path id="Path_6750" data-name="Path 6750" d="M40.739,228.332s3.718,3.449,12.2,5.609c1.867.475,3.88-.16,3.88,2.92H46.526L37.97,235.38v1.481H33.347s-1.286-7.559,1.413-8.529Z" transform="translate(12.854 88.832)" fill="#122043"/>
        <path id="Path_6751" data-name="Path 6751" d="M39.349,224.423l.908,5.43a5.23,5.23,0,0,1-5.662.19l-.317-.19.46-5.43Z" transform="translate(13.336 87.311)" fill="#f7a57a"/>
        <path id="Path_6752" data-name="Path 6752" d="M47.924,143.54s-3.3,11.314-3.969,38.952a39.2,39.2,0,0,1-4.087,16.068c-9.662,20-5.291,58.693-5.291,58.693h6.673L67.939,162.2,58.546,143.54Z" transform="translate(13.069 55.844)" fill="#122043"/>
        <path id="Path_6753" data-name="Path 6753" d="M66.876,230.685s3.718,3.449,12.2,5.609c1.867.475,3.88-.16,3.88,2.92H72.663l-8.557-1.481v1.481H59.484s-1.286-7.559,1.413-8.529Z" transform="translate(23.023 89.748)" fill="#122043"/>
        <path id="Path_6754" data-name="Path 6754" d="M65.485,226.776l.908,5.43a5.23,5.23,0,0,1-5.662.19l-.317-.19.46-5.43Z" transform="translate(23.504 88.227)" fill="#f7a57a"/>
        <path id="Path_6755" data-name="Path 6755" d="M89.329,152.922l5.051,7.456c2.278,2.867,8.14,1.7,11.8-.154a.825.825,0,0,0,.1-1.406c-2.632-1.879-9.446-6.684-11.65-7.613Z" transform="translate(34.753 58.826)" fill="#f7a57a"/>
        <path id="Path_6756" data-name="Path 6756" d="M76.414,143.54l-3.3,117.254H66.077s-9.9-32.609-7.738-55.108a36.407,36.407,0,0,0-2.67-17.938c-10.443-24.206-8.79-44.208-8.79-44.208Z" transform="translate(18.201 55.844)" fill="#002f4c"/>
        <path id="Path_6757" data-name="Path 6757" d="M415.111,27.39l5.063,9.957-10.632-2.425L373.17,23.46Z" transform="translate(145.181 9.127)" fill="#153f8e"/>
        <path id="Path_6758" data-name="Path 6758" d="M412.067,34.4,394.005,33.28l4.426-2.25Z" transform="translate(153.287 12.072)" fill="#153f8e"/>
        <path id="Path_6759" data-name="Path 6759" d="M415.111,29.006l3.161-9.7-45.1,5.77Z" transform="translate(145.181 7.511)" fill="#1a5489"/>
        <path id="Path_6760" data-name="Path 6760" d="M373.17,23.46l36.371,11.461L404.119,48.9Z" transform="translate(145.181 9.127)" fill="#1a5489"/>
        <path id="Path_6761" data-name="Path 6761" d="M405.449,41.817a.851.851,0,0,0,.172-1.4,23.933,23.933,0,0,0-3.574-2.575.85.85,0,1,0-.86,1.465,22.172,22.172,0,0,1,3.32,2.392.845.845,0,0,0,.942.117" transform="translate(155.918 14.677)" fill="#153f8e"/>
        <path id="Path_6762" data-name="Path 6762" d="M401.517,132.919a.85.85,0,0,1,.3-1.164,23.864,23.864,0,0,0,6.231-5.4.851.851,0,0,1,1.311,1.085,25.63,25.63,0,0,1-6.679,5.781.531.531,0,0,1-.049.025.849.849,0,0,1-1.115-.325m9.683-9.526a.849.849,0,0,1-.32-1.158,30.455,30.455,0,0,0,3.082-7.734.85.85,0,0,1,1.65.408,32.1,32.1,0,0,1-3.256,8.165.825.825,0,0,1-.353.338.848.848,0,0,1-.8-.018m4.327-12.921a.852.852,0,0,1-.789-.907l.025-.383a39.292,39.292,0,0,0-.417-7.986.849.849,0,1,1,1.679-.254,41.169,41.169,0,0,1,.435,8.332l-.026.411a.85.85,0,0,1-.907.788m-1.179-13.615a.851.851,0,0,1-1.039-.6,62.072,62.072,0,0,0-2.757-8,.849.849,0,1,1,1.565-.657,63.335,63.335,0,0,1,2.834,8.22.851.851,0,0,1-.435.975.977.977,0,0,1-.168.065M409.571,84a.851.851,0,0,1-1.138-.388c-.1-.214-.211-.428-.318-.642a28.186,28.186,0,0,1-2.747.917.85.85,0,0,1-.454-1.638c.821-.228,1.631-.494,2.424-.8-.882-1.689-1.854-3.446-2.953-5.337a.85.85,0,0,1,1.47-.853c1.139,1.96,2.143,3.777,3.054,5.53a25.656,25.656,0,0,0,3.538-1.974.85.85,0,1,1,.945,1.413,27.462,27.462,0,0,1-3.71,2.075c.094.186.186.372.278.558A.849.849,0,0,1,409.581,84l-.01.006m6.712-7.149a.848.848,0,0,1-.017-1.2,21.405,21.405,0,0,0,4.509-6.859.849.849,0,0,1,1.571.646,23.057,23.057,0,0,1-4.862,7.4.875.875,0,0,1-.224.164.847.847,0,0,1-.978-.149M400.152,84.83a26.53,26.53,0,0,1-8.8-.686.85.85,0,1,1,.417-1.647,24.8,24.8,0,0,0,8.237.64.85.85,0,0,1,.457,1.6.839.839,0,0,1-.313.089m22.682-19.815a.85.85,0,0,1-.69-.983,25.81,25.81,0,0,0,.076-8.275.85.85,0,1,1,1.681-.25,27.5,27.5,0,0,1-.083,8.818.85.85,0,0,1-.983.69M386.366,82.268a21.991,21.991,0,0,1-1.995-1.154,18.13,18.13,0,0,1-4.8-4.588.849.849,0,1,1,1.379-.992,16.444,16.444,0,0,0,4.348,4.155,20.234,20.234,0,0,0,1.845,1.068.849.849,0,1,1-.775,1.511m15.371-10.523a31.51,31.51,0,0,0-5.249-6.476.85.85,0,1,1,1.139-1.261,33.176,33.176,0,0,1,5.54,6.816A.852.852,0,0,1,402.912,72c-.025.015-.05.029-.076.043a.851.851,0,0,1-1.1-.3m20.38-20.305a.85.85,0,0,1-1.079-.528,27.426,27.426,0,0,0-1.477-3.491,26.134,26.134,0,0,0-2.389-3.835.849.849,0,0,1,1.357-1.021,27.563,27.563,0,0,1,2.546,4.087,28.906,28.906,0,0,1,1.57,3.709.849.849,0,0,1-.418,1.032.873.873,0,0,1-.11.047m-43.868,20.8a.849.849,0,0,1-1.029-.618,9.431,9.431,0,0,1,.7-6.776,8.594,8.594,0,0,1,1.45-2,.85.85,0,0,1,1.218,1.185,6.932,6.932,0,0,0-1.165,1.6,7.672,7.672,0,0,0-.552,5.573.847.847,0,0,1-.438.963.8.8,0,0,1-.181.068m14.2-9.7a12.155,12.155,0,0,0-7.823-.738.85.85,0,1,1-.417-1.647,13.721,13.721,0,0,1,8.952.843.848.848,0,0,1,.414,1.127.847.847,0,0,1-1.127.415" transform="translate(146.63 16.428)" fill="#153f8e"/>
        <path id="Path_6763" data-name="Path 6763" d="M393.491,109.7a.85.85,0,0,0-.619-1.575,18.17,18.17,0,0,1-3.994.674.849.849,0,1,0,.093,1.7,19.969,19.969,0,0,0,4.367-.733.924.924,0,0,0,.153-.061" transform="translate(150.98 42.052)" fill="#153f8e"/>
      </g>
    </g>
    <g id="Group_1235" data-name="Group 1235" transform="translate(150.383 17.419)">
      <g id="Group_1234" data-name="Group 1234" clip-path="url(#clip-path-2)">
        <rect id="Rectangle_348" data-name="Rectangle 348" width="55.765" height="19.234" transform="translate(0 0)" fill="url(#linear-gradient)"/>
      </g>
    </g>
    <g id="Group_1237" data-name="Group 1237">
      <g id="Group_1236" data-name="Group 1236" clip-path="url(#clip-path)">
        <path id="Path_6765" data-name="Path 6765" d="M164.029,31.307,108.961,17.151l-.7-3.41" transform="translate(42.119 5.346)" fill="#a5d1bb"/>
        <path id="Path_6766" data-name="Path 6766" d="M107.634,23l.071.115,2.311,8.55,54.117-3.953Z" transform="translate(41.875 8.947)" fill="#53b6b9"/>
      </g>
    </g>
    <g id="Group_1239" data-name="Group 1239" transform="translate(138.994 20.558)">
      <g id="Group_1238" data-name="Group 1238" clip-path="url(#clip-path-4)">
        <rect id="Rectangle_350" data-name="Rectangle 350" width="66.797" height="16.003" transform="translate(0 0)" fill="url(#linear-gradient-2)"/>
      </g>
    </g>
    <g id="Group_1241" data-name="Group 1241">
      <g id="Group_1240" data-name="Group 1240" clip-path="url(#clip-path)">
        <path id="Path_6768" data-name="Path 6768" d="M11.6,98.6a41.2,41.2,0,0,0,5.3-2.3.8.8,0,0,1,.738,1.421,42.824,42.824,0,0,1-5.5,2.388q-1.015.358-2.042.665a.8.8,0,1,1-.46-1.531q.99-.3,1.971-.645" transform="translate(3.525 37.433)" fill="#53b6b9"/>
        <path id="Path_6769" data-name="Path 6769" d="M88.733,15.1c2.5.321,5.1.731,7.945,1.258a.8.8,0,0,1-.29,1.574C93.567,17.411,91,17,88.53,16.689a.816.816,0,0,1-.375-.151.8.8,0,0,1,.578-1.438" transform="translate(34.17 5.872)" fill="#53b6b9"/>
        <path id="Path_6770" data-name="Path 6770" d="M78.964,15.944a.8.8,0,0,1,.469-1.443c2.567-.022,5.281.085,8.066.318a.8.8,0,0,1-.135,1.595c-2.735-.229-5.4-.335-7.919-.313a.8.8,0,0,1-.482-.157" transform="translate(30.594 5.64)" fill="#53b6b9"/>
        <path id="Path_6771" data-name="Path 6771" d="M23.809,91.058a.789.789,0,0,1,1.131.014.8.8,0,0,1-.015,1.131,44.493,44.493,0,0,1-6.313,5.13.8.8,0,0,1-.922-.022.771.771,0,0,1-.188-.2A.8.8,0,0,1,17.72,96a43.137,43.137,0,0,0,6.088-4.945" transform="translate(6.756 35.336)" fill="#53b6b9"/>
        <path id="Path_6772" data-name="Path 6772" d="M24.46,91.557a.8.8,0,0,1-.111-1.127c.451-.551.892-1.114,1.315-1.688a41.489,41.489,0,0,0,3.074-4.806.8.8,0,0,1,1.085-.321.809.809,0,0,1,.319,1.086A43.006,43.006,0,0,1,26.951,89.7q-.66.892-1.365,1.75a.8.8,0,0,1-1.095.135l-.031-.024" transform="translate(9.402 32.493)" fill="#53b6b9"/>
        <path id="Path_6773" data-name="Path 6773" d="M29.365,84.067a.786.786,0,0,1-.174-.1.8.8,0,0,1-.263-.947,54.693,54.693,0,0,0,2.435-7.488.8.8,0,1,1,1.55.39,55.727,55.727,0,0,1-2.506,7.706.8.8,0,0,1-1.043.436" transform="translate(11.231 29.151)" fill="#53b6b9"/>
        <path id="Path_6774" data-name="Path 6774" d="M46.2,32.734q-1,1.221-1.938,2.486c-.943,1.274-1.843,2.592-2.677,3.92a.8.8,0,0,1-1.1.251.576.576,0,0,1-.053-.035.8.8,0,0,1-.2-1.067c.853-1.363,1.777-2.716,2.745-4.023q.961-1.3,1.988-2.548a.761.761,0,0,1,1.127-.111.8.8,0,0,1,.11,1.125" transform="translate(15.605 12.22)" fill="#53b6b9"/>
        <path id="Path_6775" data-name="Path 6775" d="M40.8,40.26a58.181,58.181,0,0,0-3.171,7.219.8.8,0,0,1-1.024.482.834.834,0,0,1-.206-.11.8.8,0,0,1-.276-.913,59.9,59.9,0,0,1,3.259-7.42.8.8,0,1,1,1.418.742" transform="translate(14.036 15.207)" fill="#53b6b9"/>
        <path id="Path_6776" data-name="Path 6776" d="M52.939,26.34a64.925,64.925,0,0,0-5.794,5.371.8.8,0,0,1-1.054.092.841.841,0,0,1-.078-.065.8.8,0,0,1-.025-1.131,67.287,67.287,0,0,1,5.933-5.5.8.8,0,0,1,1.018,1.238" transform="translate(17.805 9.695)" fill="#53b6b9"/>
        <path id="Path_6777" data-name="Path 6777" d="M61.863,20.59a.8.8,0,0,1-.8-.089.785.785,0,0,1-.254-.319.8.8,0,0,1,.407-1.054,63.325,63.325,0,0,1,7.6-2.8.8.8,0,0,1,.454,1.535,61.709,61.709,0,0,0-7.406,2.725" transform="translate(23.63 6.341)" fill="#53b6b9"/>
        <path id="Path_6778" data-name="Path 6778" d="M33.368,66.246a.8.8,0,0,1-.7-.886l.114-1.007c.265-2.318.529-4.639.836-6.952a.8.8,0,1,1,1.586.211c-.306,2.3-.568,4.613-.832,6.923l-.115,1.007a.8.8,0,0,1-.885.7" transform="translate(12.706 22.061)" fill="#53b6b9"/>
        <path id="Path_6779" data-name="Path 6779" d="M54,25.457a.8.8,0,0,1-.938-.01.827.827,0,0,1-.178-.183.8.8,0,0,1,.193-1.114A66.586,66.586,0,0,1,59.962,19.9a.8.8,0,1,1,.756,1.411A64.756,64.756,0,0,0,54,25.457" transform="translate(20.517 7.704)" fill="#53b6b9"/>
        <path id="Path_6780" data-name="Path 6780" d="M33.489,65.865a.8.8,0,0,1,.693.895c-.393,3.116-.779,5.645-1.213,7.958a.8.8,0,0,1-.935.638.769.769,0,0,1-.328-.143.8.8,0,0,1-.311-.79c.429-2.281.81-4.778,1.2-7.862a.8.8,0,0,1,.893-.695" transform="translate(12.209 25.622)" fill="#53b6b9"/>
        <path id="Path_6781" data-name="Path 6781" d="M8.573,99.215a.8.8,0,1,1,.307,1.57,64.563,64.563,0,0,1-8.023,1.036.791.791,0,0,1-.533-.156.8.8,0,0,1,.419-1.44,63.639,63.639,0,0,0,7.83-1.01" transform="translate(0 38.594)" fill="#53b6b9"/>
        <path id="Path_6782" data-name="Path 6782" d="M36.522,47.685a.8.8,0,0,1,.565.981c-.631,2.353-1.171,4.887-1.65,7.745a.8.8,0,0,1-.921.657.823.823,0,0,1-.344-.146.8.8,0,0,1-.313-.775c.486-2.911,1.038-5.494,1.684-7.9a.8.8,0,0,1,.979-.567" transform="translate(13.169 18.541)" fill="#53b6b9"/>
        <path id="Path_6783" data-name="Path 6783" d="M75.341,14.919q1.4-.167,2.806-.272a.8.8,0,0,1,.121,1.6q-1.371.1-2.738.265c-1.69.2-3.4.482-5.074.836a.8.8,0,1,1-.331-1.564c1.722-.367,3.478-.654,5.216-.861" transform="translate(27.035 5.697)" fill="#53b6b9"/>
      </g>
    </g>
  </g>
</svg>
