<svg xmlns="http://www.w3.org/2000/svg" width="36.291" height="44.951" viewBox="0 0 36.291 44.951">
  <g id="Group_1091" data-name="Group 1091" transform="translate(-647 -686.658)">
    <g id="map" transform="translate(647 696.462)">
      <path id="Path_6511" data-name="Path 6511" d="M35.875,1.381a1.134,1.134,0,0,1,.415.878V31.745a1.134,1.134,0,0,1-.912,1.112L24.037,35.125a1.138,1.138,0,0,1-.445,0L12.475,32.9,1.356,35.125A1.134,1.134,0,0,1,0,34.013V4.527A1.134,1.134,0,0,1,.912,3.415L12.253,1.147a1.134,1.134,0,0,1,.445,0L23.817,3.37,34.936,1.147a1.134,1.134,0,0,1,.942.234ZM22.682,5.458,13.609,3.643V30.816l9.073,1.815ZM24.95,32.63l9.073-1.815V3.643L24.95,5.458ZM11.341,30.816V3.643L2.268,5.458V32.63Z" transform="translate(0 0)" fill="#0f52ba" fill-rule="evenodd"/>
    </g>
    <path id="ios-location" d="M16.824,2.25A8.949,8.949,0,0,0,7.875,11.2c0,6.961,8.949,18.893,8.949,18.893S25.773,18.16,25.773,11.2A8.949,8.949,0,0,0,16.824,2.25Zm0,11.864A2.915,2.915,0,1,1,19.739,11.2,2.916,2.916,0,0,1,16.824,14.114Z" transform="translate(648.016 684.408)" fill="#f7941d"/>
  </g>
</svg>
